<mxfile host="www.draw.io" modified="2019-12-24T09:54:04.337Z" agent="Mozilla/5.0 (Macintosh; Intel Mac OS X 10_13_4) AppleWebKit/537.36 (KHTML, like Gecko) Chrome/77.0.3865.90 Safari/537.36" etag="5FVn5B_V24rBWKVBNEY-" version="12.4.3" type="github" pages="1">
  <diagram id="tIWs3pn8j8WZu5du74nn" name="Page-1">
    <mxGraphModel dx="786" dy="465" grid="1" gridSize="10" guides="1" tooltips="1" connect="1" arrows="1" fold="1" page="1" pageScale="1" pageWidth="826" pageHeight="1169" math="0" shadow="0">
      <root>
        <mxCell id="0"/>
        <mxCell id="1" parent="0"/>
        <mxCell id="id57mdUPTE6CdkeXln0o-1" value="规则质量检验" style="text;html=1;strokeColor=none;fillColor=none;align=center;verticalAlign=middle;whiteSpace=wrap;rounded=0;" vertex="1" parent="1">
          <mxGeometry x="400" y="100" width="100" height="20" as="geometry"/>
        </mxCell>
        <mxCell id="id57mdUPTE6CdkeXln0o-2" value="" style="edgeStyle=orthogonalEdgeStyle;rounded=0;orthogonalLoop=1;jettySize=auto;html=1;strokeWidth=2;entryX=0;entryY=0.5;entryDx=0;entryDy=0;" edge="1" parent="1" target="id57mdUPTE6CdkeXln0o-3">
          <mxGeometry relative="1" as="geometry">
            <mxPoint x="170" y="170" as="sourcePoint"/>
            <mxPoint x="219.66666666666674" y="169.66666666666663" as="targetPoint"/>
            <Array as="points"/>
          </mxGeometry>
        </mxCell>
        <mxCell id="id57mdUPTE6CdkeXln0o-38" value="" style="edgeStyle=orthogonalEdgeStyle;rounded=0;orthogonalLoop=1;jettySize=auto;html=1;strokeWidth=2;dashed=1;" edge="1" parent="1" source="id57mdUPTE6CdkeXln0o-3" target="id57mdUPTE6CdkeXln0o-37">
          <mxGeometry relative="1" as="geometry"/>
        </mxCell>
        <mxCell id="id57mdUPTE6CdkeXln0o-44" value="离线检验" style="text;html=1;align=center;verticalAlign=middle;resizable=0;points=[];;labelBackgroundColor=#ffffff;" vertex="1" connectable="0" parent="id57mdUPTE6CdkeXln0o-38">
          <mxGeometry x="0.5826" y="-1" relative="1" as="geometry">
            <mxPoint as="offset"/>
          </mxGeometry>
        </mxCell>
        <mxCell id="id57mdUPTE6CdkeXln0o-3" value="&lt;span style=&quot;font-size: 11px&quot;&gt;新增校验任务&lt;/span&gt;" style="rounded=1;whiteSpace=wrap;html=1;strokeWidth=2;fillColor=#cce5ff;strokeColor=#36393d;" vertex="1" parent="1">
          <mxGeometry x="260" y="140" width="110" height="60" as="geometry"/>
        </mxCell>
        <mxCell id="id57mdUPTE6CdkeXln0o-50" value="" style="edgeStyle=orthogonalEdgeStyle;rounded=0;orthogonalLoop=1;jettySize=auto;html=1;strokeWidth=2;exitX=1;exitY=0.5;exitDx=0;exitDy=0;dashed=1;entryX=0.5;entryY=0;entryDx=0;entryDy=0;" edge="1" parent="1" source="id57mdUPTE6CdkeXln0o-46" target="id57mdUPTE6CdkeXln0o-49">
          <mxGeometry relative="1" as="geometry">
            <mxPoint x="480" y="220" as="sourcePoint"/>
            <Array as="points">
              <mxPoint x="440" y="285"/>
              <mxPoint x="440" y="220"/>
              <mxPoint x="635" y="220"/>
            </Array>
          </mxGeometry>
        </mxCell>
        <mxCell id="id57mdUPTE6CdkeXln0o-47" value="&lt;span style=&quot;font-size: 11px&quot;&gt;选择执行时间段&lt;br&gt;执行任务&lt;/span&gt;" style="rounded=1;whiteSpace=wrap;html=1;strokeWidth=2;fillColor=#cce5ff;strokeColor=#36393d;" vertex="1" parent="1">
          <mxGeometry x="470" y="255" width="100" height="60" as="geometry"/>
        </mxCell>
        <mxCell id="id57mdUPTE6CdkeXln0o-49" value="&lt;span style=&quot;font-size: 11px&quot;&gt;选择精确的查询参数，执行任务&lt;/span&gt;" style="rounded=1;whiteSpace=wrap;html=1;strokeWidth=2;fillColor=#cce5ff;strokeColor=#36393d;" vertex="1" parent="1">
          <mxGeometry x="590" y="255" width="90" height="60" as="geometry"/>
        </mxCell>
        <mxCell id="id57mdUPTE6CdkeXln0o-54" value="" style="edgeStyle=orthogonalEdgeStyle;rounded=0;orthogonalLoop=1;jettySize=auto;html=1;dashed=1;strokeWidth=2;" edge="1" parent="1" source="id57mdUPTE6CdkeXln0o-37" target="id57mdUPTE6CdkeXln0o-53">
          <mxGeometry relative="1" as="geometry">
            <Array as="points">
              <mxPoint x="275" y="405"/>
            </Array>
          </mxGeometry>
        </mxCell>
        <mxCell id="id57mdUPTE6CdkeXln0o-57" value="H5埋点任务" style="text;html=1;align=center;verticalAlign=middle;resizable=0;points=[];;labelBackgroundColor=#ffffff;" vertex="1" connectable="0" parent="id57mdUPTE6CdkeXln0o-54">
          <mxGeometry x="0.2389" y="2" relative="1" as="geometry">
            <mxPoint as="offset"/>
          </mxGeometry>
        </mxCell>
        <mxCell id="id57mdUPTE6CdkeXln0o-37" value="&lt;span style=&quot;font-size: 11px&quot;&gt;筛选校验事件，添加离线hive表及校验分区&lt;/span&gt;" style="rounded=1;whiteSpace=wrap;html=1;strokeWidth=2;fillColor=#cce5ff;strokeColor=#36393d;" vertex="1" parent="1">
          <mxGeometry x="220" y="265" width="110" height="50" as="geometry"/>
        </mxCell>
        <mxCell id="id57mdUPTE6CdkeXln0o-53" value="&lt;span style=&quot;font-size: 11px&quot;&gt;选择时间段，执行任务&lt;br&gt;&lt;/span&gt;" style="rounded=1;whiteSpace=wrap;html=1;strokeWidth=2;fillColor=#cce5ff;strokeColor=#36393d;" vertex="1" parent="1">
          <mxGeometry x="540" y="374" width="120" height="60" as="geometry"/>
        </mxCell>
        <mxCell id="id57mdUPTE6CdkeXln0o-34" value="" style="endArrow=none;html=1;strokeWidth=2;dashed=1;" edge="1" parent="1">
          <mxGeometry width="50" height="50" relative="1" as="geometry">
            <mxPoint x="200" y="920" as="sourcePoint"/>
            <mxPoint x="200" y="80" as="targetPoint"/>
          </mxGeometry>
        </mxCell>
        <mxCell id="id57mdUPTE6CdkeXln0o-36" value="" style="endArrow=none;html=1;strokeWidth=2;dashed=1;" edge="1" parent="1">
          <mxGeometry width="50" height="50" relative="1" as="geometry">
            <mxPoint x="700" y="900" as="sourcePoint"/>
            <mxPoint x="700" y="80" as="targetPoint"/>
          </mxGeometry>
        </mxCell>
        <mxCell id="id57mdUPTE6CdkeXln0o-41" value="" style="endArrow=classic;html=1;dashed=1;strokeWidth=2;rounded=0;" edge="1" parent="1">
          <mxGeometry width="50" height="50" relative="1" as="geometry">
            <mxPoint x="290" y="233" as="sourcePoint"/>
            <mxPoint x="380" y="265" as="targetPoint"/>
            <Array as="points">
              <mxPoint x="380" y="233"/>
            </Array>
          </mxGeometry>
        </mxCell>
        <mxCell id="id57mdUPTE6CdkeXln0o-45" value="实时检验" style="text;html=1;align=center;verticalAlign=middle;resizable=0;points=[];;labelBackgroundColor=#ffffff;" vertex="1" connectable="0" parent="id57mdUPTE6CdkeXln0o-41">
          <mxGeometry x="0.5818" y="-3" relative="1" as="geometry">
            <mxPoint as="offset"/>
          </mxGeometry>
        </mxCell>
        <mxCell id="id57mdUPTE6CdkeXln0o-51" value="" style="edgeStyle=orthogonalEdgeStyle;rounded=0;orthogonalLoop=1;jettySize=auto;html=1;strokeWidth=2;dashed=1;" edge="1" parent="1" source="id57mdUPTE6CdkeXln0o-46" target="id57mdUPTE6CdkeXln0o-47">
          <mxGeometry relative="1" as="geometry"/>
        </mxCell>
        <mxCell id="id57mdUPTE6CdkeXln0o-46" value="筛选校验事件" style="rounded=1;whiteSpace=wrap;html=1;strokeWidth=2;fillColor=#cce5ff;strokeColor=#36393d;" vertex="1" parent="1">
          <mxGeometry x="340" y="265" width="80" height="50" as="geometry"/>
        </mxCell>
        <mxCell id="id57mdUPTE6CdkeXln0o-55" value="" style="endArrow=classic;html=1;dashed=1;strokeWidth=2;" edge="1" parent="1">
          <mxGeometry width="50" height="50" relative="1" as="geometry">
            <mxPoint x="275" y="400" as="sourcePoint"/>
            <mxPoint x="538" y="480" as="targetPoint"/>
            <Array as="points">
              <mxPoint x="275" y="480"/>
            </Array>
          </mxGeometry>
        </mxCell>
        <mxCell id="id57mdUPTE6CdkeXln0o-61" value="native埋点任务" style="text;html=1;align=center;verticalAlign=middle;resizable=0;points=[];;labelBackgroundColor=#ffffff;" vertex="1" connectable="0" parent="id57mdUPTE6CdkeXln0o-55">
          <mxGeometry x="0.2362" y="1" relative="1" as="geometry">
            <mxPoint as="offset"/>
          </mxGeometry>
        </mxCell>
        <mxCell id="id57mdUPTE6CdkeXln0o-56" value="&lt;span style=&quot;font-size: 11px&quot;&gt;执行任务（对离线表内所有符合事件规则的埋点）&lt;br&gt;&lt;/span&gt;" style="rounded=1;whiteSpace=wrap;html=1;strokeWidth=2;fillColor=#cce5ff;strokeColor=#36393d;" vertex="1" parent="1">
          <mxGeometry x="540" y="450" width="120" height="60" as="geometry"/>
        </mxCell>
        <mxCell id="id57mdUPTE6CdkeXln0o-62" value="" style="endArrow=none;dashed=1;html=1;strokeWidth=2;" edge="1" parent="1">
          <mxGeometry width="50" height="50" relative="1" as="geometry">
            <mxPoint x="50" y="530" as="sourcePoint"/>
            <mxPoint x="760" y="530" as="targetPoint"/>
            <Array as="points">
              <mxPoint x="120" y="530"/>
            </Array>
          </mxGeometry>
        </mxCell>
        <mxCell id="id57mdUPTE6CdkeXln0o-63" value="&lt;font style=&quot;font-size: 20px&quot;&gt;创建校验任务&lt;/font&gt;" style="text;html=1;strokeColor=none;fillColor=none;align=center;verticalAlign=middle;whiteSpace=wrap;rounded=0;" vertex="1" parent="1">
          <mxGeometry x="80" y="240" width="40" height="200" as="geometry"/>
        </mxCell>
        <mxCell id="id57mdUPTE6CdkeXln0o-64" value="&lt;font style=&quot;font-size: 20px&quot;&gt;任务统计&lt;/font&gt;" style="text;html=1;strokeColor=none;fillColor=none;align=center;verticalAlign=middle;whiteSpace=wrap;rounded=0;" vertex="1" parent="1">
          <mxGeometry x="80" y="560" width="40" height="200" as="geometry"/>
        </mxCell>
        <mxCell id="id57mdUPTE6CdkeXln0o-65" value="" style="endArrow=none;dashed=1;html=1;strokeWidth=2;" edge="1" parent="1">
          <mxGeometry width="50" height="50" relative="1" as="geometry">
            <mxPoint x="60" y="880" as="sourcePoint"/>
            <mxPoint x="750" y="880" as="targetPoint"/>
          </mxGeometry>
        </mxCell>
        <mxCell id="id57mdUPTE6CdkeXln0o-75" value="" style="edgeStyle=orthogonalEdgeStyle;rounded=0;orthogonalLoop=1;jettySize=auto;html=1;dashed=1;strokeWidth=2;entryX=0.5;entryY=0;entryDx=0;entryDy=0;" edge="1" parent="1" source="id57mdUPTE6CdkeXln0o-70" target="id57mdUPTE6CdkeXln0o-76">
          <mxGeometry relative="1" as="geometry">
            <mxPoint x="300" y="590" as="targetPoint"/>
          </mxGeometry>
        </mxCell>
        <mxCell id="id57mdUPTE6CdkeXln0o-70" value="实时校验" style="ellipse;whiteSpace=wrap;html=1;strokeWidth=2;fillColor=#dae8fc;strokeColor=#6c8ebf;" vertex="1" parent="1">
          <mxGeometry x="290" y="540" width="100" height="30" as="geometry"/>
        </mxCell>
        <mxCell id="id57mdUPTE6CdkeXln0o-80" value="" style="edgeStyle=orthogonalEdgeStyle;rounded=0;orthogonalLoop=1;jettySize=auto;html=1;dashed=1;strokeWidth=2;" edge="1" parent="1" source="id57mdUPTE6CdkeXln0o-71">
          <mxGeometry relative="1" as="geometry">
            <mxPoint x="570" y="590" as="targetPoint"/>
          </mxGeometry>
        </mxCell>
        <mxCell id="id57mdUPTE6CdkeXln0o-71" value="离线校验" style="ellipse;whiteSpace=wrap;html=1;strokeWidth=2;fillColor=#dae8fc;strokeColor=#6c8ebf;" vertex="1" parent="1">
          <mxGeometry x="520" y="540" width="100" height="30" as="geometry"/>
        </mxCell>
        <mxCell id="id57mdUPTE6CdkeXln0o-76" value="查询是最近三天&lt;br&gt;es数据" style="rhombus;whiteSpace=wrap;html=1;strokeWidth=2;fillColor=#dae8fc;strokeColor=#6c8ebf;" vertex="1" parent="1">
          <mxGeometry x="255" y="590" width="170" height="70" as="geometry"/>
        </mxCell>
        <mxCell id="id57mdUPTE6CdkeXln0o-81" value="查询对应分区的数据" style="rhombus;whiteSpace=wrap;html=1;strokeWidth=2;fillColor=#dae8fc;strokeColor=#6c8ebf;" vertex="1" parent="1">
          <mxGeometry x="485" y="590" width="170" height="70" as="geometry"/>
        </mxCell>
        <mxCell id="id57mdUPTE6CdkeXln0o-89" value="选择时间段" style="endArrow=classic;html=1;dashed=1;strokeWidth=2;entryX=0.5;entryY=0;entryDx=0;entryDy=0;exitX=0.5;exitY=1;exitDx=0;exitDy=0;" edge="1" parent="1" source="id57mdUPTE6CdkeXln0o-76" target="id57mdUPTE6CdkeXln0o-91">
          <mxGeometry width="50" height="50" relative="1" as="geometry">
            <mxPoint x="300" y="660" as="sourcePoint"/>
            <mxPoint x="290" y="720" as="targetPoint"/>
          </mxGeometry>
        </mxCell>
        <mxCell id="id57mdUPTE6CdkeXln0o-90" value="选择参数" style="endArrow=classic;html=1;dashed=1;strokeWidth=2;entryX=0.5;entryY=0;entryDx=0;entryDy=0;" edge="1" parent="1" target="id57mdUPTE6CdkeXln0o-95">
          <mxGeometry width="50" height="50" relative="1" as="geometry">
            <mxPoint x="570" y="660" as="sourcePoint"/>
            <mxPoint x="640" y="720" as="targetPoint"/>
          </mxGeometry>
        </mxCell>
        <mxCell id="id57mdUPTE6CdkeXln0o-91" value="目标数据：服务端日志时间在选择时间段内的所有日志&lt;br&gt;统计维度：事件维度&lt;br&gt;口径：成功通过规则/总匹配规则的埋点数&lt;br&gt;&lt;br&gt;" style="rounded=1;whiteSpace=wrap;html=1;strokeWidth=2;fillColor=#dae8fc;strokeColor=#6c8ebf;" vertex="1" parent="1">
          <mxGeometry x="230" y="740" width="210" height="100" as="geometry"/>
        </mxCell>
        <mxCell id="id57mdUPTE6CdkeXln0o-92" value="" style="endArrow=classic;html=1;dashed=1;strokeWidth=2;entryX=0.5;entryY=0;entryDx=0;entryDy=0;" edge="1" parent="1" target="id57mdUPTE6CdkeXln0o-91">
          <mxGeometry width="50" height="50" relative="1" as="geometry">
            <mxPoint x="570" y="660" as="sourcePoint"/>
            <mxPoint x="505" y="720" as="targetPoint"/>
            <Array as="points">
              <mxPoint x="340" y="680"/>
            </Array>
          </mxGeometry>
        </mxCell>
        <mxCell id="id57mdUPTE6CdkeXln0o-94" value="" style="endArrow=classic;html=1;dashed=1;strokeWidth=2;exitX=0.5;exitY=1;exitDx=0;exitDy=0;" edge="1" parent="1">
          <mxGeometry width="50" height="50" relative="1" as="geometry">
            <mxPoint x="338" y="660" as="sourcePoint"/>
            <mxPoint x="573" y="740" as="targetPoint"/>
            <Array as="points">
              <mxPoint x="568" y="680"/>
            </Array>
          </mxGeometry>
        </mxCell>
        <mxCell id="id57mdUPTE6CdkeXln0o-95" value="&lt;span style=&quot;white-space: normal&quot;&gt;目标数据：服务端日志符合选择参数的所有日志&lt;/span&gt;&lt;br style=&quot;white-space: normal&quot;&gt;&lt;span style=&quot;white-space: normal&quot;&gt;统计维度：事件维度&lt;/span&gt;&lt;br style=&quot;white-space: normal&quot;&gt;&lt;span style=&quot;white-space: normal&quot;&gt;口径：成功通过规则/总匹配规则的埋点数&lt;/span&gt;" style="rounded=1;whiteSpace=wrap;html=1;strokeWidth=2;fillColor=#dae8fc;strokeColor=#6c8ebf;" vertex="1" parent="1">
          <mxGeometry x="485" y="740" width="175" height="100" as="geometry"/>
        </mxCell>
      </root>
    </mxGraphModel>
  </diagram>
</mxfile>
